HIERARCHY
ROOT newVegas:Hips
{
	OFFSET 0.000000 96.479958 0.000000
	CHANNELS 6 Xposition Yposition Zposition Xrotation Yrotation Zrotation
	JOINT newVegas:Pelvis
	{
		OFFSET 0.000000 0.000000 0.000000
		CHANNELS 3 Xrotation Yrotation Zrotation
		JOINT newVegas:LeftUpLeg
		{
			OFFSET 18.735201 -5.666702 -4.541200
			CHANNELS 3 Xrotation Yrotation Zrotation
			JOINT newVegas:LeftLeg
			{
				OFFSET -0.021200 -31.938179 0.493100
				CHANNELS 3 Xrotation Yrotation Zrotation
				JOINT newVegas:LeftFoot
				{
					OFFSET 0.021200 -31.938179 -4.336299
					CHANNELS 3 Xrotation Yrotation Zrotation
					JOINT newVegas:LeftToeBase
					{
						OFFSET 0.943001 -26.722000 15.023500
						CHANNELS 3 Xrotation Yrotation Zrotation
						End Site
						{
							OFFSET 0.000000 30.670183 0.000000
						}
					}
				}
				JOINT newVegas:Left_PantLeg
				{
					OFFSET 0.663870 -9.044666 -1.108900
					CHANNELS 3 Xrotation Yrotation Zrotation
					End Site
					{
						OFFSET 1.415995 20.635357 0.000000
					}
				}
			}
		}
		JOINT newVegas:RightUpLeg
		{
			OFFSET -18.735201 -5.666702 -4.541200
			CHANNELS 3 Xrotation Yrotation Zrotation
			JOINT newVegas:RightLeg
			{
				OFFSET 0.018946 -31.938133 0.493100
				CHANNELS 3 Xrotation Yrotation Zrotation
				JOINT newVegas:RightFoot
				{
					OFFSET -0.018946 -31.938126 -4.336299
					CHANNELS 3 Xrotation Yrotation Zrotation
					JOINT newVegas:RightToeBase
					{
						OFFSET -0.943001 -26.722004 15.023500
						CHANNELS 3 Xrotation Yrotation Zrotation
						End Site
						{
							OFFSET 0.000000 30.670187 0.000000
						}
					}
				}
				JOINT newVegas:Right_PantLeg
				{
					OFFSET -0.661674 -9.044716 -1.108900
					CHANNELS 3 Xrotation Yrotation Zrotation
					End Site
					{
						OFFSET -1.415958 20.635269 0.000000
					}
				}
			}
		}
	}
	JOINT newVegas:Spine
	{
		OFFSET 0.000000 10.199997 -0.299500
		CHANNELS 3 Xrotation Yrotation Zrotation
		JOINT newVegas:Spine1
		{
			OFFSET 0.000000 11.900002 -1.516600
			CHANNELS 3 Xrotation Yrotation Zrotation
			JOINT newVegas:Spine2
			{
				OFFSET 0.000000 13.600006 -2.842500
				CHANNELS 3 Xrotation Yrotation Zrotation
				JOINT newVegas:Neck
				{
					OFFSET 0.000000 9.624100 -2.890100
					CHANNELS 3 Xrotation Yrotation Zrotation
					JOINT newVegas:Head
					{
						OFFSET 0.000000 14.068802 -1.351900
						CHANNELS 3 Xrotation Yrotation Zrotation
						JOINT newVegas:Hair_Back
						{
							OFFSET 0.000000 3.231903 -17.524799
							CHANNELS 3 Xrotation Yrotation Zrotation
							End Site
							{
								OFFSET 0.000000 19.849884 0.000000
							}
						}
						JOINT newVegas:Hair_Front
						{
							OFFSET 0.000000 31.260406 4.573800
							CHANNELS 3 Xrotation Yrotation Zrotation
							JOINT newVegas:Hair_Front1
							{
								OFFSET 0.000000 2.284103 11.993300
								CHANNELS 3 Xrotation Yrotation Zrotation
								JOINT newVegas:Hair_Front2
								{
									OFFSET 0.000000 2.284103 11.993300
									CHANNELS 3 Xrotation Yrotation Zrotation
									End Site
									{
										OFFSET 0.000000 12.208862 0.000000
									}
								}
							}
						}
						JOINT newVegas:Jowel
						{
							OFFSET 0.000000 -7.458206 6.864100
							CHANNELS 3 Xrotation Yrotation Zrotation
							End Site
							{
								OFFSET 0.000000 19.849884 0.000000
							}
						}
					}
				}
				JOINT newVegas:LeftShoulder
				{
					OFFSET 15.263000 10.923401 -0.547700
					CHANNELS 3 Xrotation Yrotation Zrotation
					JOINT newVegas:LeftArm
					{
						OFFSET 25.438599 -2.830597 -13.032500
						CHANNELS 3 Xrotation Yrotation Zrotation
						JOINT newVegas:LeftForeArm
						{
							OFFSET 29.960503 0.000000 0.000000
							CHANNELS 3 Xrotation Yrotation Zrotation
							JOINT newVegas:LeftHand
							{
								OFFSET 27.849251 0.000000 0.000000
								CHANNELS 3 Xrotation Yrotation Zrotation
								JOINT newVegas:LeftHandThumb1
								{
									OFFSET 4.487587 -3.305161 6.305391
									CHANNELS 3 Xrotation Yrotation Zrotation
									JOINT newVegas:LeftHandThumb2
									{
										OFFSET 5.480453 -3.164139 3.164143
										CHANNELS 3 Xrotation Yrotation Zrotation
										JOINT newVegas:LeftHandThumb3
										{
											OFFSET 5.159721 -2.978973 2.978967
											CHANNELS 3 Xrotation Yrotation Zrotation
											End Site
											{
												OFFSET 2.494507 5.926697 1.738678
											}
										}
									}
								}
								JOINT newVegas:LeftHandIndex1
								{
									OFFSET 18.578728 -0.527832 5.208049
									CHANNELS 3 Xrotation Yrotation Zrotation
									JOINT newVegas:LeftHandIndex2
									{
										OFFSET 3.192009 0.000000 0.000000
										CHANNELS 3 Xrotation Yrotation Zrotation
										JOINT newVegas:LeftHandIndex3
										{
											OFFSET 3.835129 0.000000 0.000000
											CHANNELS 3 Xrotation Yrotation Zrotation
											End Site
											{
												OFFSET -0.034599 3.816971 0.371180
											}
										}
									}
								}
								JOINT newVegas:LeftHandMiddle1
								{
									OFFSET 18.476105 0.000000 0.000000
									CHANNELS 3 Xrotation Yrotation Zrotation
									JOINT newVegas:LeftHandMiddle2
									{
										OFFSET 3.324875 0.000000 0.000000
										CHANNELS 3 Xrotation Yrotation Zrotation
										JOINT newVegas:LeftHandMiddle3
										{
											OFFSET 4.596550 0.000000 0.000000
											CHANNELS 3 Xrotation Yrotation Zrotation
											End Site
											{
												OFFSET 0.057701 4.578827 0.399218
											}
										}
									}
								}
								JOINT newVegas:LeftHandRing1
								{
									OFFSET 17.732719 0.121887 -4.201567
									CHANNELS 3 Xrotation Yrotation Zrotation
									JOINT newVegas:LeftHandRing2
									{
										OFFSET 2.733170 0.000000 0.000000
										CHANNELS 3 Xrotation Yrotation Zrotation
										JOINT newVegas:LeftHandRing3
										{
											OFFSET 3.178268 0.000000 0.000000
											CHANNELS 3 Xrotation Yrotation Zrotation
											End Site
											{
												OFFSET 0.119102 3.170624 0.185394
											}
										}
									}
								}
								JOINT newVegas:LeftHandPinky1
								{
									OFFSET 15.989624 -0.606689 -7.535461
									CHANNELS 3 Xrotation Yrotation Zrotation
									JOINT newVegas:LeftHandPinky2
									{
										OFFSET 2.538986 0.000000 0.000000
										CHANNELS 3 Xrotation Yrotation Zrotation
										JOINT newVegas:LeftHandPinky3
										{
											OFFSET 2.593102 0.000000 0.000000
											CHANNELS 3 Xrotation Yrotation Zrotation
											End Site
											{
												OFFSET -0.150902 2.584198 0.152708
											}
										}
									}
								}
							}
							JOINT newVegas:Left_Sleeve
							{
								OFFSET 0.267448 -0.649796 0.577675
								CHANNELS 3 Xrotation Yrotation Zrotation
								End Site
								{
									OFFSET 0.000000 15.991241 0.000000
								}
							}
							JOINT newVegas:Left_CapeC
							{
								OFFSET 15.715958 -8.608795 -6.935905
								CHANNELS 3 Xrotation Yrotation Zrotation
								JOINT newVegas:Left_CapeC1
								{
									OFFSET 0.000000 -8.688499 0.000000
									CHANNELS 3 Xrotation Yrotation Zrotation
									End Site
									{
										OFFSET 0.000000 8.688499 0.000000
									}
								}
							}
						}
						JOINT newVegas:Left_CapeB
						{
							OFFSET 26.118385 -8.608795 -7.079235
							CHANNELS 3 Xrotation Yrotation Zrotation
							JOINT newVegas:Left_CapeB1
							{
								OFFSET 0.000000 -8.688499 0.000000
								CHANNELS 3 Xrotation Yrotation Zrotation
								End Site
								{
									OFFSET 0.000000 8.688499 0.000000
								}
							}
						}
						JOINT newVegas:Left_CapeA
						{
							OFFSET 5.115639 -8.608795 -10.395809
							CHANNELS 3 Xrotation Yrotation Zrotation
							JOINT newVegas:Left_CapeA1
							{
								OFFSET 0.000000 -8.688499 0.000000
								CHANNELS 3 Xrotation Yrotation Zrotation
								End Site
								{
									OFFSET 0.000000 8.688499 0.000000
								}
							}
						}
					}
				}
				JOINT newVegas:RightShoulder
				{
					OFFSET -15.263000 10.923401 -0.547700
					CHANNELS 3 Xrotation Yrotation Zrotation
					JOINT newVegas:RightArm
					{
						OFFSET -25.438599 -2.830597 -13.032500
						CHANNELS 3 Xrotation Yrotation Zrotation
						JOINT newVegas:RightForeArm
						{
							OFFSET -29.960503 0.000000 0.000000
							CHANNELS 3 Xrotation Yrotation Zrotation
							JOINT newVegas:RightHand
							{
								OFFSET -27.849251 0.000000 0.000000
								CHANNELS 3 Xrotation Yrotation Zrotation
								JOINT newVegas:RightHandThumb1
								{
									OFFSET -4.487587 -3.305161 6.305391
									CHANNELS 3 Xrotation Yrotation Zrotation
									JOINT newVegas:RightHandThumb2
									{
										OFFSET -5.480453 -3.164139 3.164143
										CHANNELS 3 Xrotation Yrotation Zrotation
										JOINT newVegas:RightHandThumb3
										{
											OFFSET -5.159721 -2.978973 2.978967
											CHANNELS 3 Xrotation Yrotation Zrotation
											End Site
											{
												OFFSET -2.494507 5.926697 1.738678
											}
										}
									}
								}
								JOINT newVegas:RightHandIndex1
								{
									OFFSET -18.578728 -0.527832 5.208049
									CHANNELS 3 Xrotation Yrotation Zrotation
									JOINT newVegas:RightHandIndex2
									{
										OFFSET -3.192009 0.000000 0.000000
										CHANNELS 3 Xrotation Yrotation Zrotation
										JOINT newVegas:RightHandIndex3
										{
											OFFSET -3.835129 0.000000 0.000000
											CHANNELS 3 Xrotation Yrotation Zrotation
											End Site
											{
												OFFSET 0.034599 3.816971 0.371180
											}
										}
									}
								}
								JOINT newVegas:RightHandMiddle1
								{
									OFFSET -18.476105 0.000000 0.000000
									CHANNELS 3 Xrotation Yrotation Zrotation
									JOINT newVegas:RightHandMiddle2
									{
										OFFSET -3.324875 0.000000 0.000000
										CHANNELS 3 Xrotation Yrotation Zrotation
										JOINT newVegas:RightHandMiddle3
										{
											OFFSET -4.596550 0.000000 0.000000
											CHANNELS 3 Xrotation Yrotation Zrotation
											End Site
											{
												OFFSET -0.057701 4.578827 0.399218
											}
										}
									}
								}
								JOINT newVegas:RightHandRing1
								{
									OFFSET -17.732719 0.121887 -4.201567
									CHANNELS 3 Xrotation Yrotation Zrotation
									JOINT newVegas:RightHandRing2
									{
										OFFSET -2.733170 0.000000 0.000000
										CHANNELS 3 Xrotation Yrotation Zrotation
										JOINT newVegas:RightHandRing3
										{
											OFFSET -3.178268 0.000000 0.000000
											CHANNELS 3 Xrotation Yrotation Zrotation
											End Site
											{
												OFFSET -0.119102 3.170624 0.185394
											}
										}
									}
								}
								JOINT newVegas:RightHandPinky1
								{
									OFFSET -15.989624 -0.606689 -7.535461
									CHANNELS 3 Xrotation Yrotation Zrotation
									JOINT newVegas:RightHandPinky2
									{
										OFFSET -2.538986 0.000000 0.000000
										CHANNELS 3 Xrotation Yrotation Zrotation
										JOINT newVegas:RightHandPinky3
										{
											OFFSET -2.593102 0.000000 0.000000
											CHANNELS 3 Xrotation Yrotation Zrotation
											End Site
											{
												OFFSET 0.150902 2.584198 0.152708
											}
										}
									}
								}
							}
							JOINT newVegas:Right_CapeC
							{
								OFFSET -15.715958 -8.608795 -6.935905
								CHANNELS 3 Xrotation Yrotation Zrotation
								JOINT newVegas:Right_CapeC1
								{
									OFFSET 0.000000 -8.688499 0.000000
									CHANNELS 3 Xrotation Yrotation Zrotation
									End Site
									{
										OFFSET 0.000000 8.688499 0.000000
									}
								}
							}
							JOINT newVegas:Right_Sleeve
							{
								OFFSET -0.267448 -0.649994 0.577675
								CHANNELS 3 Xrotation Yrotation Zrotation
								End Site
								{
									OFFSET 0.000000 15.991302 0.000000
								}
							}
						}
						JOINT newVegas:Right_CapeA
						{
							OFFSET -5.115540 -8.608795 -10.395824
							CHANNELS 3 Xrotation Yrotation Zrotation
							JOINT newVegas:Right_CapeA1
							{
								OFFSET 0.000000 -8.688499 0.000000
								CHANNELS 3 Xrotation Yrotation Zrotation
								End Site
								{
									OFFSET 0.000000 8.688499 0.000000
								}
							}
						}
						JOINT newVegas:Right_CapeB
						{
							OFFSET -26.118187 -8.608795 -7.079266
							CHANNELS 3 Xrotation Yrotation Zrotation
							JOINT newVegas:Right_CapeB1
							{
								OFFSET 0.000000 -8.688499 0.000000
								CHANNELS 3 Xrotation Yrotation Zrotation
								End Site
								{
									OFFSET 0.000000 8.688499 0.000000
								}
							}
						}
					}
				}
				JOINT newVegas:Left_Collar
				{
					OFFSET 18.625099 8.655502 8.828100
					CHANNELS 3 Xrotation Yrotation Zrotation
					JOINT newVegas:Left_Collar1
					{
						OFFSET 14.783401 10.540405 -1.259500
						CHANNELS 3 Xrotation Yrotation Zrotation
						End Site
						{
							OFFSET 0.000000 18.199875 0.000000
						}
					}
				}
				JOINT newVegas:Collar_Back
				{
					OFFSET 0.000000 15.630707 -20.132601
					CHANNELS 3 Xrotation Yrotation Zrotation
					End Site
					{
						OFFSET 0.000000 22.523010 0.000000
					}
				}
				JOINT newVegas:Left_Peck
				{
					OFFSET 17.239599 -5.132599 25.482599
					CHANNELS 3 Xrotation Yrotation Zrotation
					End Site
					{
						OFFSET 0.000000 22.523010 0.000000
					}
				}
				JOINT newVegas:Right_Peck
				{
					OFFSET -17.239599 -5.132202 25.482599
					CHANNELS 3 Xrotation Yrotation Zrotation
					End Site
					{
						OFFSET 0.000000 22.523010 0.000000
					}
				}
				JOINT newVegas:Right_Collar
				{
					OFFSET -18.625099 8.655792 8.828100
					CHANNELS 3 Xrotation Yrotation Zrotation
					JOINT newVegas:Right_Collar1
					{
						OFFSET -14.783401 10.539993 -1.259500
						CHANNELS 3 Xrotation Yrotation Zrotation
						End Site
						{
							OFFSET 0.000000 18.199631 0.000000
						}
					}
				}
			}
		}
		JOINT newVegas:Belly
		{
			OFFSET 0.000000 -6.540398 9.014299
			CHANNELS 3 Xrotation Yrotation Zrotation
			End Site
			{
				OFFSET 0.000000 11.566666 0.000000
			}
		}
	}
	JOINT newVegas:ElvisFacialAnim_Joint
	{
		OFFSET 1.000000 -95.330101 -8.825800
		CHANNELS 3 Xrotation Yrotation Zrotation
		End Site
		{
			OFFSET 0.000000 35.315800 0.000000
		}
	}
}
MOTION
Frames: 4
Frame Time: 0.033333
-2.064906 81.103668 2.016626 15.409839 -30.575840 3.715916 0.000001 0.000002 -0.000000 -68.880340 0.285425 1.587532 65.642441 0.640581 -0.318380 -10.138205 -0.430552 2.928081 0.000000 -0.000000 -0.000000 -0.000000 0.000001 -0.000000 -54.351053 -6.763423 -14.686623 83.476257 3.623823 4.302634 20.756620 0.683265 7.244671 0.000002 -0.000000 0.000000 0.000000 0.000002 -0.000003 37.329456 7.451262 -10.246133 -2.844114 2.639142 -0.272606 -2.863888 2.636247 -0.553579 -3.949991 1.136154 -1.215676 -3.949982 1.136154 -1.215676 0.000001 -0.000001 0.000001 -3.950000 1.136159 -1.215677 -3.949992 1.136141 -1.215671 -0.000001 0.000000 -0.000000 0.000001 -0.000001 0.000001 6.682655 -22.982876 10.174935 -47.835985 -23.450888 -70.554433 -0.329936 -52.040823 -1.919474 -34.603852 -7.465101 17.647559 12.139909 32.224515 -20.715474 2.999714 -1.503538 25.979734 0.000002 0.000003 0.000001 0.016551 0.020176 -62.650771 3.416023 -3.814585 -88.825005 -0.000000 -0.000001 -0.000000 -2.052914 -5.912569 -81.840044 4.295407 -12.055740 -64.886374 -0.000002 -0.000001 0.000001 -4.540465 18.616007 -74.996891 4.790226 -0.844111 -66.215576 0.000001 0.000001 0.000002 -2.674503 11.499178 -76.696508 -6.262354 -4.568119 -51.725525 -0.000001 -0.000005 -0.000002 -0.000002 0.000002 -0.000000 -0.000002 0.000002 -0.000000 -0.000002 0.000001 0.000000 -0.000001 0.000001 -0.000000 -0.000001 0.000000 -0.000000 -0.000001 0.000001 -0.000000 -0.000001 0.000001 0.000000 5.940081 31.537845 -26.325952 -47.814565 23.141874 71.497437 -1.193984 51.625035 -15.791934 -34.827066 2.618027 -2.077609 -6.666417 -8.246965 4.694897 31.152465 -25.871684 -9.425329 0.000002 0.000002 -0.000000 -4.888011 -9.034017 55.242608 0.234231 0.161427 104.710318 0.000000 -0.000000 0.000000 2.578504 -5.315524 71.485538 -14.334701 4.170144 107.253716 -0.000001 -0.000001 0.000000 -9.235595 -17.082807 80.313783 0.035106 0.431020 82.174354 -0.000000 0.000001 -0.000001 -10.019163 -21.702562 80.947058 2.841548 1.202478 79.398695 0.000002 0.000003 -0.000001 -0.000001 -0.000001 0.000001 -0.000001 -0.000002 0.000001 -0.000001 -0.000000 0.000002 -0.000000 -0.000001 0.000001 -0.000000 0.000000 0.000000 -0.000000 -0.000001 0.000001 -0.000001 -0.000000 0.000000 0.000002 -0.000001 0.000000 0.000002 -0.000001 0.000000 0.000002 -0.000001 0.000000 0.000002 -0.000001 0.000000 0.000002 -0.000001 0.000000 0.000002 -0.000001 0.000000 0.000002 -0.000001 0.000000 0.000002 0.000000 -0.000001 0.000001 0.000002 -0.000000 
5.292808 83.052284 0.973927 16.472526 -27.824567 5.397119 -0.000000 0.000001 -0.000000 -67.820015 3.734960 -0.690869 51.955859 -3.357138 -4.264154 2.025012 0.476988 3.818910 -0.000000 0.000003 0.000000 -0.000001 -0.000001 0.000001 -44.193059 -8.846832 -11.391302 71.023128 19.947318 6.777802 16.176687 -0.456563 28.650670 -0.000002 0.000002 -0.000003 0.000000 0.000000 -0.000002 36.271481 8.472930 -10.676522 -2.565035 2.884369 -0.424907 -2.570181 2.875631 -0.720957 -3.743250 1.042744 -1.377337 -3.743258 1.042746 -1.377338 0.000002 -0.000001 -0.000000 -3.743179 1.042746 -1.377340 -3.743243 1.042744 -1.377337 0.000001 -0.000000 0.000000 0.000002 -0.000001 0.000000 6.464385 -21.833331 10.588754 -50.342316 -24.988932 -71.197783 -0.141339 -44.214963 -4.624061 -36.459563 -12.659413 12.855657 12.139907 32.224518 -20.715465 2.999709 -1.503539 25.979729 0.000001 0.000002 0.000001 0.016549 0.020181 -62.650764 3.416023 -3.814586 -88.825005 0.000000 -0.000001 -0.000000 -2.052916 -5.912567 -81.840044 4.295408 -12.055736 -64.886374 -0.000002 0.000000 -0.000001 -4.540469 18.616010 -74.996884 4.790225 -0.844110 -66.215569 0.000001 -0.000002 0.000001 -2.674508 11.499182 -76.696508 -6.262360 -4.568118 -51.725528 0.000002 -0.000002 -0.000000 -0.000000 -0.000005 -0.000001 -0.000000 -0.000005 -0.000001 -0.000001 -0.000004 -0.000000 -0.000000 -0.000001 -0.000000 -0.000000 -0.000002 -0.000000 -0.000000 -0.000001 -0.000000 -0.000001 -0.000000 0.000000 6.227946 30.766741 -26.739345 -50.011683 23.978433 74.426372 -1.225221 46.389822 -16.173046 -34.894364 5.454025 -3.621829 -6.666419 -8.246970 4.694896 31.152469 -25.871691 -9.425334 0.000001 0.000000 -0.000002 -4.888010 -9.034021 55.242611 0.234231 0.161427 104.710318 0.000000 -0.000001 0.000000 2.578502 -5.315528 71.485532 -14.334704 4.170144 107.253723 0.000001 0.000001 0.000000 -9.235597 -17.082807 80.313777 0.035105 0.431023 82.174354 -0.000000 -0.000003 -0.000000 -10.019167 -21.702569 80.947051 2.841545 1.202474 79.398695 -0.000001 0.000002 0.000000 -0.000001 0.000001 -0.000000 -0.000001 -0.000000 -0.000001 0.000000 0.000001 -0.000001 0.000001 0.000000 0.000000 0.000001 0.000001 0.000000 0.000001 0.000000 0.000000 0.000001 0.000001 0.000000 -0.000001 -0.000000 -0.000000 -0.000001 -0.000000 -0.000000 -0.000001 -0.000000 -0.000000 -0.000001 -0.000000 -0.000000 -0.000001 -0.000000 -0.000000 -0.000001 -0.000000 -0.000000 -0.000001 -0.000000 -0.000000 -0.000002 0.000001 -0.000000 -0.000000 0.000001 -0.000000 
12.613281 85.457245 1.206181 17.114256 -24.522223 5.274459 0.000002 0.000001 -0.000000 -67.778617 1.831021 -3.184812 39.797593 0.263186 -1.397330 21.695553 0.315768 -17.479178 -0.000001 -0.000003 0.000001 0.000001 -0.000000 -0.000000 -38.056363 -11.482403 -7.160496 61.959597 19.414014 9.725962 6.593426 -2.686095 22.379982 -0.000002 0.000002 -0.000003 0.000003 -0.000001 0.000000 36.421055 8.279617 -9.332017 -2.059167 2.690520 -0.284379 -2.060884 2.695748 -0.552758 -3.980508 0.966236 -1.397330 -3.980505 0.966236 -1.397329 0.000001 -0.000000 0.000000 -3.980483 0.966235 -1.397329 -3.980390 0.966236 -1.397331 -0.000001 -0.000000 0.000000 0.000001 -0.000000 0.000000 7.170576 -23.044558 10.471451 -52.572287 -26.578510 -70.588673 -0.100095 -41.060160 -3.138433 -37.513397 -13.890254 11.098045 12.139914 32.224529 -20.715469 2.999714 -1.503543 25.979733 0.000001 -0.000001 0.000001 0.016551 0.020178 -62.650771 3.416020 -3.814586 -88.825005 0.000000 0.000001 0.000000 -2.052914 -5.912570 -81.840044 4.295412 -12.055741 -64.886374 -0.000002 0.000000 0.000000 -4.540466 18.616008 -74.996891 4.790226 -0.844111 -66.215569 -0.000000 -0.000001 -0.000001 -2.674504 11.499179 -76.696508 -6.262360 -4.568119 -51.725528 0.000001 -0.000003 -0.000002 -0.000001 0.000000 0.000002 -0.000001 0.000000 0.000002 -0.000002 0.000000 0.000003 -0.000001 -0.000001 -0.000001 -0.000001 -0.000002 -0.000001 -0.000001 -0.000001 -0.000001 -0.000003 0.000000 -0.000001 5.305634 27.677127 -26.481519 -54.425748 26.116996 76.730420 -1.287546 41.381381 -16.191891 -35.622333 7.380346 -2.086958 -6.666420 -8.246965 4.694897 31.152462 -25.871689 -9.425334 0.000001 -0.000001 0.000001 -4.888010 -9.034021 55.242604 0.234228 0.161429 104.710318 -0.000000 0.000002 -0.000000 2.578503 -5.315523 71.485538 -14.334709 4.170145 107.253716 -0.000001 -0.000000 0.000001 -9.235596 -17.082805 80.313777 0.035101 0.431024 82.174354 0.000001 -0.000003 -0.000000 -10.019163 -21.702562 80.947058 2.841544 1.202478 79.398702 -0.000001 -0.000002 -0.000000 -0.000001 -0.000001 -0.000000 0.000001 -0.000000 0.000000 -0.000001 -0.000001 -0.000001 -0.000001 -0.000001 0.000001 -0.000001 0.000000 0.000001 -0.000001 -0.000001 0.000001 -0.000001 -0.000000 0.000001 -0.000001 -0.000001 0.000001 -0.000001 -0.000001 0.000001 -0.000001 -0.000001 0.000001 -0.000001 -0.000001 0.000001 -0.000001 -0.000001 0.000001 -0.000001 -0.000001 0.000001 -0.000001 -0.000001 0.000001 -0.000002 0.000000 -0.000001 0.000002 0.000001 -0.000000 
20.356930 87.694626 -0.211290 17.651850 -22.469842 5.893927 -0.000000 0.000000 -0.000000 -66.627915 2.553166 -3.470912 37.837636 5.101886 -3.003562 24.327838 0.770319 -12.823463 0.000001 0.000000 -0.000001 0.000000 0.000001 0.000002 -31.956246 -12.065212 -2.481875 51.215873 7.206416 9.805745 4.176813 -2.001026 14.494363 -0.000001 0.000000 -0.000001 -0.000002 0.000000 -0.000000 37.006703 6.822119 -8.352790 -1.796104 2.392943 -0.170745 -1.835277 2.382040 -0.354864 -4.223564 0.899874 -1.350322 -4.223551 0.899873 -1.350321 0.000002 0.000000 -0.000000 -4.223551 0.899875 -1.350322 -4.223559 0.899862 -1.350320 0.000001 -0.000000 0.000000 0.000002 0.000000 -0.000000 7.121793 -23.866520 10.055323 -53.167907 -27.320793 -69.119090 -0.091397 -41.232008 -2.515929 -38.785298 -13.633634 12.199927 12.139913 32.224518 -20.715467 2.999707 -1.503546 25.979726 0.000002 -0.000001 -0.000001 0.016550 0.020176 -62.650771 3.416016 -3.814586 -88.825005 0.000001 -0.000002 0.000001 -2.052913 -5.912572 -81.840044 4.295407 -12.055738 -64.886374 -0.000003 -0.000001 0.000000 -4.540468 18.616007 -74.996884 4.790223 -0.844111 -66.215576 -0.000001 -0.000002 -0.000001 -2.674506 11.499179 -76.696508 -6.262355 -4.568118 -51.725528 -0.000002 -0.000005 -0.000000 -0.000002 -0.000002 0.000001 -0.000002 -0.000002 0.000001 -0.000003 -0.000001 0.000002 -0.000000 -0.000001 -0.000000 -0.000000 -0.000001 -0.000000 -0.000000 -0.000001 -0.000000 -0.000000 -0.000002 -0.000000 5.084515 25.362728 -26.053888 -59.234658 28.635853 77.740592 -1.349142 37.066019 -15.969935 -36.617973 8.163651 0.512305 -6.666417 -8.246968 4.694899 31.152462 -25.871684 -9.425334 -0.000002 -0.000002 -0.000001 -4.888010 -9.034017 55.242604 0.234232 0.161429 104.710318 -0.000000 -0.000004 0.000000 2.578502 -5.315526 71.485532 -14.334701 4.170144 107.253716 0.000001 0.000001 -0.000003 -9.235595 -17.082805 80.313777 0.035105 0.431025 82.174354 -0.000001 0.000004 -0.000001 -10.019162 -21.702561 80.947051 2.841537 1.202476 79.398695 -0.000000 0.000003 -0.000000 -0.000002 0.000003 -0.000003 0.000004 -0.000001 -0.000001 -0.000002 0.000003 -0.000002 -0.000003 -0.000001 -0.000000 -0.000004 0.000000 0.000001 -0.000003 -0.000001 -0.000000 -0.000004 -0.000000 0.000001 0.000001 0.000000 -0.000001 0.000001 0.000000 -0.000001 0.000001 0.000000 -0.000001 0.000001 0.000000 -0.000001 0.000001 0.000000 -0.000001 0.000001 0.000000 -0.000001 0.000001 0.000000 -0.000001 -0.000001 -0.000000 -0.000000 -0.000000 0.000000 -0.000000 
